<svg width="26" height="26" viewBox="0 0 26 26" fill="none" xmlns="http://www.w3.org/2000/svg">
<path d="M22.1791 25.9274C22.044 25.9293 21.9089 25.922 21.7748 25.9053C17.996 25.4899 14.366 24.1991 11.1733 22.1353C8.08593 20.1534 5.48138 17.5056 3.55064 14.386C1.6199 11.2664 0.41193 7.75416 0.0153891 4.10691C-0.0731954 3.14629 0.223178 2.18979 0.839394 1.44755C1.45561 0.705313 2.34129 0.238051 3.30181 0.148414C3.41361 0.138014 3.52148 0.132812 3.62808 0.132812H7.16539C8.04868 0.13513 8.90077 0.459931 9.56147 1.04618C10.2222 1.63243 10.646 2.43977 10.7534 3.31651C10.9219 4.36114 11.1829 5.38872 11.5335 6.38711C11.7435 7.02188 11.7738 7.70241 11.621 8.35334C11.4682 9.00426 11.1382 9.60022 10.6676 10.0752L10.5194 10.2247C10.3449 10.3922 10.2359 10.6165 10.212 10.8572C10.1882 11.0979 10.2512 11.3393 10.3894 11.5377C11.4901 13.0665 12.8333 14.405 14.3661 15.5001C14.5634 15.6349 14.802 15.6958 15.0398 15.672C15.2776 15.6482 15.4994 15.5413 15.6661 15.3701L15.8169 15.218C16.3103 14.7285 16.9338 14.3909 17.6133 14.2453C18.2929 14.0996 19 14.1521 19.6506 14.3964C20.6164 14.7552 21.6193 15.0046 22.6406 15.14C23.5209 15.2624 24.326 15.7027 24.9041 16.3777C25.4822 17.0528 25.7933 17.9161 25.7788 18.8047V22.2835C25.7788 23.2437 25.3994 24.1651 24.7232 24.8469C24.0471 25.5286 23.1289 25.9156 22.1687 25.9235M7.15111 2.73411H3.62808C3.48612 2.73713 3.34625 2.7689 3.21691 2.8275C3.08757 2.8861 2.97151 2.97032 2.87564 3.07506C2.77977 3.1798 2.70615 3.30289 2.65919 3.4369C2.61223 3.5709 2.59293 3.71304 2.60246 3.85471C3.15676 8.83031 5.38822 13.469 8.9298 17.0075C12.4714 20.546 17.112 22.7735 22.0881 23.3235C22.2286 23.3303 22.3691 23.3088 22.5012 23.2603C22.6332 23.2118 22.7542 23.1373 22.8569 23.0411C22.9596 22.945 23.0419 22.8292 23.099 22.7006C23.1561 22.572 23.1868 22.4333 23.1893 22.2926V18.767C23.1936 18.515 23.1055 18.2701 22.9417 18.0785C22.7779 17.8869 22.5497 17.7619 22.3 17.727C21.0866 17.567 19.8952 17.2705 18.7484 16.843C18.5649 16.7717 18.3646 16.7553 18.1719 16.7957C17.9792 16.8361 17.8024 16.9316 17.6629 17.0705L17.5212 17.2135C16.9212 17.8224 16.1244 18.1984 15.2729 18.2743C14.4215 18.3503 13.5707 18.1213 12.8724 17.6282C11.1011 16.3628 9.54915 14.8157 8.27821 13.0483C7.78315 12.3483 7.55304 11.4952 7.62901 10.6412C7.70497 9.78725 8.08211 8.9881 8.69295 8.38651L8.8307 8.24741C8.96148 8.11523 9.05339 7.94961 9.09627 7.76869C9.13915 7.58776 9.13136 7.39853 9.07381 7.22172C8.66941 6.07304 8.37046 4.88992 8.1807 3.68701C8.15896 3.42834 8.04129 3.18714 7.85078 3.01082C7.66026 2.8345 7.41069 2.7358 7.15111 2.73411Z" fill="white"/>
</svg>
