<svg width="20" height="20" viewBox="0 0 20 20" fill="none" xmlns="http://www.w3.org/2000/svg">
<path d="M5.47986 19.7929C5.25869 19.7924 5.04037 19.7431 4.84052 19.6483C4.64067 19.5536 4.46422 19.4158 4.32386 19.2449C4.02637 18.7922 3.90637 18.2456 3.98685 17.7099V16.4629C3.67776 16.444 3.36995 16.4079 3.06485 16.3549C2.38336 16.1921 1.75726 15.8513 1.25043 15.3675C0.7436 14.8837 0.374168 14.2741 0.179843 13.6009C0.048811 12.9287 0.00347078 12.2426 0.0448639 11.5589V5.71691C-0.0771442 4.56492 0.0504082 3.40017 0.418857 2.3019C0.43592 2.25163 0.456976 2.20281 0.481845 2.1559C0.865958 1.42241 1.47317 0.829932 2.21585 0.463916C2.26072 0.44207 2.3072 0.42366 2.35486 0.408893C3.47521 0.0469219 4.65889 -0.0767013 5.82987 0.0459165H14.0059C15.1772 -0.0759849 16.361 0.0476213 17.4818 0.408893C17.5295 0.423668 17.576 0.442077 17.6209 0.463916C18.3634 0.829703 18.9704 1.42228 19.3539 2.1559C19.3785 2.20223 19.3995 2.25038 19.4168 2.29991C19.7867 3.39856 19.915 4.56412 19.7929 5.71691V10.7969C19.9163 11.9481 19.7894 13.1124 19.4209 14.2099C19.4044 14.2606 19.3836 14.3097 19.3589 14.3569C18.9751 15.0898 18.3682 15.6816 17.6259 16.0469C17.5812 16.0688 17.5351 16.0875 17.4879 16.1029C16.3666 16.464 15.1825 16.5876 14.0109 16.4659H11.5829C11.2237 16.4492 10.8639 16.466 10.5078 16.5159C10.3512 16.5515 10.1994 16.6059 10.0559 16.6779C9.77946 16.8399 9.51838 17.0266 9.27585 17.2359L6.88285 19.1019C6.51292 19.491 6.01671 19.7359 5.48285 19.7929M4.98987 14.4659C5.25509 14.4659 5.50943 14.5713 5.69696 14.7588C5.8845 14.9463 5.98987 15.2007 5.98987 15.4659V17.2659L8.00885 15.6929C8.35256 15.3992 8.72359 15.139 9.11685 14.9159C9.44891 14.7456 9.80294 14.6221 10.1689 14.5489C10.6519 14.4758 11.1408 14.4493 11.6288 14.4699H14.0649C14.1013 14.4699 14.1377 14.4719 14.1739 14.4759C15.0573 14.5753 15.9518 14.4905 16.8008 14.2269C17.115 14.0576 17.3758 13.8042 17.5539 13.4949C17.8135 12.6808 17.8973 11.8208 17.7999 10.9719C17.7959 10.9337 17.7938 10.8953 17.7939 10.8569V5.6649C17.7939 5.62683 17.7959 5.58879 17.7999 5.55092C17.8967 4.70098 17.8112 3.84013 17.5489 3.0259C17.3718 2.71563 17.1108 2.46158 16.7959 2.2929C15.9468 2.03129 15.053 1.94655 14.1699 2.0439C14.1333 2.04787 14.0966 2.04988 14.0598 2.04991H5.76987C5.73345 2.0499 5.69706 2.04789 5.66086 2.0439C4.77771 1.94655 3.88397 2.03129 3.03485 2.2929C2.7197 2.46116 2.45837 2.71489 2.28086 3.02492C2.02038 3.83988 1.93553 4.70079 2.03186 5.55092C2.03634 5.58875 2.03833 5.62681 2.03784 5.6649V11.6259C2.00416 12.1374 2.03238 12.6511 2.12186 13.1559C2.22452 13.4612 2.40251 13.7357 2.63935 13.954C2.87618 14.1723 3.16423 14.3274 3.47687 14.4049C3.95482 14.4782 4.43917 14.5007 4.92185 14.4719H4.98185M9.91284 9.7719C9.52212 9.76934 9.14796 9.61383 8.87055 9.33867C8.59313 9.06352 8.43456 8.69063 8.42881 8.29994C8.42305 7.90926 8.57056 7.53185 8.83976 7.24864C9.10895 6.96544 9.47839 6.79896 9.86887 6.7849C10.0663 6.77518 10.2636 6.80552 10.4489 6.8741C10.6343 6.94268 10.8038 7.04809 10.9473 7.18395C11.0909 7.31981 11.2054 7.48332 11.284 7.66463C11.3626 7.84594 11.4037 8.04129 11.4048 8.23891C11.4135 8.63339 11.2664 9.01538 10.9953 9.30214C10.7243 9.5889 10.3512 9.75734 9.95685 9.77092L9.91284 9.7719ZM5.47586 9.77092C5.08508 9.76859 4.71075 9.61322 4.43317 9.33815C4.15559 9.06308 3.99683 8.69017 3.99094 8.29943C3.98505 7.90868 4.1325 7.53119 4.40168 7.24788C4.67085 6.96457 5.04031 6.798 5.43085 6.78389C5.82664 6.77735 6.20921 6.9263 6.4964 7.19872C6.78359 7.47114 6.95252 7.84531 6.96686 8.24089C6.97473 8.63453 6.8275 9.01548 6.55698 9.30153C6.28646 9.58758 5.91431 9.75582 5.52085 9.76992H5.47586M14.3499 9.76992C13.9591 9.76758 13.5847 9.61222 13.3072 9.33715C13.0296 9.06207 12.8708 8.6892 12.865 8.29845C12.8591 7.9077 13.0065 7.53018 13.2757 7.24687C13.5449 6.96357 13.9143 6.79702 14.3048 6.78292H14.3228C14.7188 6.7735 15.1023 6.92175 15.389 7.19509C15.6756 7.46842 15.8419 7.84444 15.8514 8.24041C15.8608 8.63637 15.7125 9.01986 15.4392 9.30651C15.1658 9.59316 14.7898 9.75949 14.3939 9.76891H14.3499" fill="#111111"/>
</svg>
